<svg width="20" height="20" viewBox="0 0 20 20" fill="none" xmlns="http://www.w3.org/2000/svg">
<path d="M1.33333 10.4167C1.33333 14.973 5.02699 18.6667 9.58333 18.6667C14.1397 18.6667 17.8333 14.973 17.8333 10.4167C17.8333 5.86031 14.1397 2.16666 9.58333 2.16666C5.02699 2.16666 1.33333 5.86031 1.33333 10.4167Z" stroke="#36BD8C"/>
<rect x="-0.208333" y="0.208333" width="0.416667" height="2.08333" rx="0.208333" transform="matrix(-1 0 0 1 9.58333 1.66666)" stroke="#36BD8C" stroke-width="0.416667"/>
<mask id="path-3-inside-1_244_580" fill="white">
<path d="M10 5.41667C10 5.18655 9.81345 5 9.58333 5V5C9.35321 5 9.16667 5.18655 9.16667 5.41667V10.8333H10V5.41667Z"/>
</mask>
<path d="M9.16667 10.8333V11.8333H8.16667V10.8333H9.16667ZM10 10.8333H11V11.8333H10V10.8333ZM10.1667 5.41667V10.8333H8.16667V5.41667H10.1667ZM9.16667 9.83333H10V11.8333H9.16667V9.83333ZM9 10.8333V5.41667H11V10.8333H9ZM9.58333 6C9.9055 6 10.1667 5.73883 10.1667 5.41667H8.16667C8.16667 4.63426 8.80093 4 9.58333 4V6ZM9.58333 4C10.3657 4 11 4.63427 11 5.41667H9C9 5.73883 9.26117 6 9.58333 6V4Z" fill="#36BD8C" mask="url(#path-3-inside-1_244_580)"/>
<mask id="path-5-inside-2_244_580" fill="white">
<path d="M7.33746 8.60117C7.16118 8.45325 6.89837 8.47625 6.75045 8.65253V8.65253C6.60253 8.82881 6.62552 9.09162 6.80181 9.23954L9.46434 11.4737L10 10.8353L7.33746 8.60117Z"/>
</mask>
<path d="M9.46434 11.4737L10.2304 12.1165L9.5876 12.8825L8.82156 12.2397L9.46434 11.4737ZM10 10.8353L10.6428 10.0693L11.4088 10.712L10.766 11.4781L10 10.8353ZM7.44459 8.4735L10.1071 10.7076L8.82156 12.2397L6.15902 10.0056L7.44459 8.4735ZM8.6983 10.8309L9.23396 10.1925L10.766 11.4781L10.2304 12.1165L8.6983 10.8309ZM9.35721 11.6014L6.69467 9.36722L7.98025 7.83513L10.6428 10.0693L9.35721 11.6014ZM7.51649 9.29532C7.72358 9.04852 7.69139 8.68058 7.44459 8.4735L6.15902 10.0056C5.55966 9.50267 5.48148 8.6091 5.9844 8.00974L7.51649 9.29532ZM5.9844 8.00974C6.48732 7.41039 7.38089 7.33221 7.98025 7.83513L6.69467 9.36722C6.94147 9.5743 7.30941 9.54211 7.51649 9.29532L5.9844 8.00974Z" fill="#36BD8C" mask="url(#path-5-inside-2_244_580)"/>
<rect x="-0.208333" y="0.208333" width="0.416667" height="2.08333" rx="0.208333" transform="matrix(-1 0 0 1 9.58333 16.6667)" stroke="#36BD8C" stroke-width="0.416667"/>
<rect x="-0.208333" y="0.208333" width="2.08333" height="0.416667" rx="0.208333" transform="matrix(-1 0 0 1 2.91667 10)" stroke="#36BD8C" stroke-width="0.416667"/>
<mask id="path-9-inside-3_244_580" fill="white">
<path d="M18.3333 10H16.25C16.0199 10 15.8333 10.1865 15.8333 10.4167V10.4167C15.8333 10.6468 16.0199 10.8333 16.25 10.8333H18.3333V10Z"/>
</mask>
<path d="M18.3333 10V9H19.3333V10H18.3333ZM18.3333 10.8333H19.3333V11.8333H18.3333V10.8333ZM18.3333 11H16.25V9H18.3333V11ZM16.25 9.83333H18.3333V11.8333H16.25V9.83333ZM17.3333 10.8333V10H19.3333V10.8333H17.3333ZM16.8333 10.4167C16.8333 10.0945 16.5722 9.83333 16.25 9.83333V11.8333C15.4676 11.8333 14.8333 11.1991 14.8333 10.4167H16.8333ZM16.25 11C16.5722 11 16.8333 10.7388 16.8333 10.4167H14.8333C14.8333 9.63426 15.4676 9 16.25 9V11Z" fill="#36BD8C" mask="url(#path-9-inside-3_244_580)"/>
</svg>
