<svg width="20" height="20" viewBox="0 0 20 20" fill="none" xmlns="http://www.w3.org/2000/svg">
<path fill-rule="evenodd" clip-rule="evenodd" d="M15.8333 0.833344C15.3731 0.833344 15 1.20644 15 1.66668V2.50001H5V1.66668C5 1.20644 4.62691 0.833344 4.16667 0.833344C3.70643 0.833344 3.33334 1.20644 3.33334 1.66668L3.33334 2.50001C1.95263 2.50001 0.83334 3.6193 0.83334 5.00001V16.6667C0.83334 18.0474 1.95263 19.1667 3.33334 19.1667H16.6667C18.0474 19.1667 19.1667 18.0474 19.1667 16.6667V5.00001C19.1667 3.6193 18.0474 2.50001 16.6667 2.50001V1.66668C16.6667 1.20644 16.2936 0.833344 15.8333 0.833344ZM18.3333 6.66668H1.66667L1.66667 16.6667C1.66667 17.5872 2.41286 18.3333 3.33334 18.3333H16.6667C17.5871 18.3333 18.3333 17.5872 18.3333 16.6667V6.66668ZM4.83334 14.1667C5.38562 14.1667 5.83334 14.6144 5.83334 15.1667V15.6667C5.83334 16.219 5.38562 16.6667 4.83334 16.6667H4.33334C3.78105 16.6667 3.33334 16.219 3.33334 15.6667V15.1667C3.33334 14.6144 3.78105 14.1667 4.33334 14.1667H4.83334Z" fill="#36BD8C"/>
<path fill-rule="evenodd" clip-rule="evenodd" d="M3.33334 8.75001C3.33334 8.51989 3.51989 8.33334 3.75001 8.33334C3.98012 8.33334 4.16667 8.51989 4.16667 8.75001C4.16667 8.98013 3.98012 9.16668 3.75001 9.16668C3.51989 9.16668 3.33334 8.98013 3.33334 8.75001ZM16.6667 8.75001C16.6667 8.98013 16.4801 9.16668 16.25 9.16668C16.0199 9.16668 15.8333 8.98013 15.8333 8.75001C15.8333 8.51989 16.0199 8.33334 16.25 8.33334C16.4801 8.33334 16.6667 8.51989 16.6667 8.75001Z" fill="#36BD8C"/>
</svg>
