<svg width="48" height="48" viewBox="0 0 48 48" fill="none" xmlns="http://www.w3.org/2000/svg">
<rect width="48" height="48" rx="16" fill="#CEEBEE"/>
<path d="M18.5 24.5C18.5 25.6046 17.6046 26.5 16.5 26.5C15.3954 26.5 14.5 25.6046 14.5 24.5C14.5 23.3954 15.3954 22.5 16.5 22.5C17.6046 22.5 18.5 23.3954 18.5 24.5Z" stroke="#36BD8C"/>
<path d="M25.5 24.5C25.5 25.6046 24.6046 26.5 23.5 26.5C22.3954 26.5 21.5 25.6046 21.5 24.5C21.5 23.3954 22.3954 22.5 23.5 22.5C24.6046 22.5 25.5 23.3954 25.5 24.5Z" stroke="#36BD8C"/>
<path d="M32.5 24.5C32.5 25.6046 31.6046 26.5 30.5 26.5C29.3954 26.5 28.5 25.6046 28.5 24.5C28.5 23.3954 29.3954 22.5 30.5 22.5C31.6046 22.5 32.5 23.3954 32.5 24.5Z" stroke="#36BD8C"/>
</svg>
