<svg width="25" height="24" viewBox="0 0 25 24" fill="none" xmlns="http://www.w3.org/2000/svg">
<path d="M18.136 7.66703C19.9964 8.88617 21.7573 10.4681 23.3319 12.0206C21.7699 13.557 20.0017 15.1223 18.1351 16.3313C16.1205 17.6362 14.0346 18.4974 11.9994 18.5C9.95778 18.5026 7.88587 17.6446 5.88573 16.3405C4.03139 15.1315 2.27588 13.5635 0.70979 12.0209C2.26476 10.4901 4.02818 8.91905 5.88973 7.70059C7.89993 6.38482 9.97937 5.51033 12.0026 5.49997C14.0533 5.48948 16.1303 6.35263 18.136 7.66703Z" stroke="#089BAB"/>
<mask id="path-2-inside-1_11_38" fill="white">
<path d="M12 18H13V20.5C13 20.7761 12.7761 21 12.5 21C12.2239 21 12 20.7761 12 20.5V18Z"/>
</mask>
<path d="M12 18V17H11V18H12ZM13 18H14V17H13V18ZM12 19H13V17H12V19ZM12 18V20.5H14V18H12ZM13 20.5V18H11V20.5H13ZM12.5 20C12.7761 20 13 20.2239 13 20.5H11C11 21.3284 11.6716 22 12.5 22V20ZM12 20.5C12 20.2239 12.2239 20 12.5 20V22C13.3284 22 14 21.3284 14 20.5H12Z" fill="#089BAB" mask="url(#path-2-inside-1_11_38)"/>
<mask id="path-4-inside-2_11_38" fill="white">
<path d="M18 16.6428L18.766 16L20.373 17.9151C20.5505 18.1267 20.5229 18.4421 20.3114 18.6196C20.0998 18.7971 19.7845 18.7695 19.607 18.5579L18 16.6428Z"/>
</mask>
<path d="M18 16.6428L17.3572 15.8768L16.5912 16.5196L17.234 17.2856L18 16.6428ZM18.766 16L19.5321 15.3572L18.8893 14.5912L18.1233 15.234L18.766 16ZM18.6428 17.4089L19.4088 16.7661L18.1233 15.234L17.3572 15.8768L18.6428 17.4089ZM18 16.6428L19.607 18.5579L21.1391 17.2724L19.5321 15.3572L18 16.6428ZM20.373 17.9151L18.766 16L17.234 17.2856L18.8409 19.2007L20.373 17.9151ZM19.6686 17.8535C19.8801 17.676 20.1955 17.7036 20.373 17.9151L18.8409 19.2007C19.3734 19.8353 20.3196 19.9181 20.9542 19.3856L19.6686 17.8535ZM19.607 18.5579C19.4295 18.3464 19.4571 18.031 19.6686 17.8535L20.9542 19.3856C21.5888 18.8531 21.6716 17.907 21.1391 17.2724L19.607 18.5579Z" fill="#089BAB" mask="url(#path-4-inside-2_11_38)"/>
<mask id="path-6-inside-3_11_38" fill="white">
<path d="M6.6944 16.6428L5.92836 16L4.32139 17.9151C4.14389 18.1267 4.17148 18.4421 4.38302 18.6196C4.59456 18.7971 4.90993 18.7695 5.08744 18.5579L6.6944 16.6428Z"/>
</mask>
<path d="M6.6944 16.6428L7.33719 15.8768L8.10324 16.5196L7.46045 17.2856L6.6944 16.6428ZM5.92836 16L5.16232 15.3572L5.8051 14.5912L6.57115 15.234L5.92836 16ZM6.05162 17.4089L5.28557 16.7661L6.57115 15.234L7.33719 15.8768L6.05162 17.4089ZM6.6944 16.6428L5.08744 18.5579L3.55535 17.2724L5.16232 15.3572L6.6944 16.6428ZM4.32139 17.9151L5.92836 16L7.46045 17.2856L5.85348 19.2007L4.32139 17.9151ZM5.02581 17.8535C4.81427 17.676 4.49889 17.7036 4.32139 17.9151L5.85348 19.2007C5.32098 19.8353 4.37484 19.9181 3.74023 19.3856L5.02581 17.8535ZM5.08744 18.5579C5.26494 18.3464 5.23734 18.031 5.02581 17.8535L3.74023 19.3856C3.10562 18.8531 3.02284 17.907 3.55535 17.2724L5.08744 18.5579Z" fill="#089BAB" mask="url(#path-6-inside-3_11_38)"/>
</svg>
