<svg width="32" height="32" viewBox="0 0 32 32" fill="none" xmlns="http://www.w3.org/2000/svg">
<rect width="32" height="32" rx="6" fill="#36BD8C"/>
<path d="M16.7489 23.6504C16.4428 23.942 16.1854 24.1751 16 24.3392C15.8146 24.1751 15.5572 23.942 15.2511 23.6504C14.6045 23.0347 13.7436 22.1613 12.8841 21.1299C12.0234 20.0971 11.1724 18.9155 10.5383 17.6837C9.90264 16.4487 9.5 15.1918 9.5 14C9.5 10.3761 12.3761 7.5 16 7.5C19.6239 7.5 22.5 10.3761 22.5 14C22.5 15.1918 22.0974 16.4487 21.4617 17.6837C20.8276 18.9155 19.9766 20.0971 19.1159 21.1299C18.2564 22.1613 17.3955 23.0347 16.7489 23.6504Z" stroke="white"/>
<path d="M18.5 14C18.5 15.3807 17.3807 16.5 16 16.5C14.6193 16.5 13.5 15.3807 13.5 14C13.5 12.6193 14.6193 11.5 16 11.5C17.3807 11.5 18.5 12.6193 18.5 14Z" fill="#36BD8C" stroke="white"/>
</svg>
