<svg width="48" height="48" viewBox="0 0 48 48" fill="none" xmlns="http://www.w3.org/2000/svg">
<rect width="48" height="48" rx="16" fill="#CEEBEE"/>
<path fill-rule="evenodd" clip-rule="evenodd" d="M33.8223 32.9645L29.9479 29.09C33.0806 25.5159 32.9423 20.0743 29.533 16.665C25.9796 13.1117 20.2184 13.1117 16.665 16.665C13.1117 20.2184 13.1117 25.9796 16.665 29.533C20.0743 32.9423 25.5159 33.0806 29.09 29.9479L32.9645 33.8223C33.2014 34.0592 33.5854 34.0592 33.8223 33.8223C34.0592 33.5854 34.0592 33.2014 33.8223 32.9645ZM28.6751 17.5229C31.7547 20.6025 31.7547 25.5955 28.6751 28.6751C25.5955 31.7547 20.6025 31.7547 17.5229 28.6751C14.4433 25.5955 14.4433 20.6025 17.5229 17.5229C20.6025 14.4433 25.5955 14.4433 28.6751 17.5229Z" fill="#36BD8C"/>
</svg>
